<svg width="16" height="16" viewBox="0 0 16 16" fill="none" xmlns="http://www.w3.org/2000/svg">
<g clip-path="url(#clip0_5692_18)">
<path d="M8.00003 15.0909C11.9162 15.0909 15.0909 11.9162 15.0909 8.00003C15.0909 4.08383 11.9162 0.909119 8.00003 0.909119C4.08383 0.909119 0.909119 4.08383 0.909119 8.00003C0.909119 11.9162 4.08383 15.0909 8.00003 15.0909Z" fill="#40BF7B"/>
<path d="M8.00002 10.3636C9.63177 10.3636 10.9546 9.0408 10.9546 7.40905C10.9546 5.7773 9.63177 4.45451 8.00002 4.45451C6.36827 4.45451 5.04547 5.7773 5.04547 7.40905C5.04547 9.0408 6.36827 10.3636 8.00002 10.3636Z" stroke="white" stroke-width="1.5" stroke-miterlimit="10"/>
<path d="M3.25787 13.2719C3.70298 12.3968 4.38158 11.6619 5.21853 11.1486C6.05548 10.6353 7.01815 10.3636 7.99997 10.3636C8.98179 10.3636 9.94447 10.6353 10.7814 11.1486C11.6184 11.6619 12.297 12.3968 12.7421 13.2719" stroke="white" stroke-width="1.5" stroke-linecap="round" stroke-linejoin="round"/>
</g>
<defs>
<clipPath id="clip0_5692_18">
<rect width="16" height="16" fill="white"/>
</clipPath>
</defs>
</svg>
